<?xml version="1.0" standalone="no"?>
<!DOCTYPE svg PUBLIC "-//W3C//DTD SVG 20010904//EN"
 "http://www.w3.org/TR/2001/REC-SVG-20010904/DTD/svg10.dtd">
<svg version="1.0" xmlns="http://www.w3.org/2000/svg"
 width="1626.000000pt" height="1316.000000pt" viewBox="0 0 1626.000000 1316.000000"
 preserveAspectRatio="xMidYMid meet">

<g transform="translate(0.000000,1316.000000) scale(0.100000,-0.100000)"
fill="#000000" stroke="none">
<path d="M0 6580 l0 -6580 8130 0 8130 0 0 6580 0 6580 -8130 0 -8130 0 0
-6580z m7417 3116 l552 -451 0 -1024 c1 -817 -2 -1021 -11 -1014 -23 18 -1763
1445 -1771 1452 -6 6 -10 1233 -7 1983 l0 68 343 -281 c188 -155 590 -484 894
-733z m2523 -8 l0 -1023 -893 -732 -892 -731 -5 981 c-3 540 -3 1001 0 1024 5
41 5 41 790 683 432 353 795 653 807 666 12 13 26 24 30 24 4 1 42 30 83 65
41 35 76 64 78 64 1 1 2 -459 2 -1021z m-2782 -2027 l822 -674 0 -1019 c0
-813 -3 -1018 -12 -1011 -12 6 -902 733 -1008 822 -25 21 -208 171 -406 334
l-362 296 -5 48 c-2 26 -5 488 -6 1027 l-2 978 78 -64 c43 -35 448 -367 901
-737z m2782 -229 l0 -1019 -822 -674 c-453 -371 -854 -700 -893 -733 l-70 -58
-5 982 c-3 540 -3 1001 -1 1024 l3 41 887 727 c487 399 889 727 894 727 4 1 7
-457 7 -1017z m-2275 -2859 c68 -45 122 -92 161 -140 l37 -45 -17 -36 c-24
-50 -100 -144 -146 -181 -39 -31 -40 -32 -72 -15 -81 42 -228 162 -228 187 0
38 182 257 213 257 7 0 30 -12 52 -27z m-2434 -178 c114 -17 179 -41 276 -101
87 -54 146 -118 185 -201 105 -222 4 -498 -226 -619 -31 -16 -56 -33 -56 -37
0 -6 267 -446 318 -525 5 -7 42 -18 83 -23 41 -6 77 -14 80 -17 4 -4 4 -33 2
-64 l-5 -58 -247 0 -247 0 -168 315 -168 315 -104 0 -104 0 0 -235 c0 -129 3
-235 8 -235 4 0 50 -7 102 -15 52 -8 98 -15 103 -15 4 0 7 -29 7 -65 l0 -65
-399 0 -398 0 -6 37 c-4 20 -2 42 4 49 5 6 52 31 104 55 l95 44 0 651 0 652
-45 6 c-25 3 -65 9 -90 12 l-45 6 0 64 0 64 108 1 c59 1 208 5 332 8 369 12
401 11 501 -4z m3715 -32 c3 -16 7 -34 10 -41 2 -8 -35 -32 -101 -64 l-105
-51 0 -624 0 -625 48 6 c26 3 137 13 247 22 110 8 200 16 200 17 1 1 13 47 29
102 15 55 36 131 47 169 l20 68 92 -7 c138 -10 127 1 127 -128 0 -109 -13
-312 -26 -409 l-7 -48 -677 0 -678 0 -6 23 c-15 57 -11 62 99 113 l105 49 -3
650 -2 650 -80 12 c-44 6 -86 12 -92 12 -9 1 -13 21 -13 66 l0 65 380 0 380 0
6 -27z m2525 -115 c0 -2 10 -75 22 -163 l22 -160 173 -3 172 -2 0 -51 c0 -47
-4 -56 -61 -125 l-62 -74 -109 0 -109 0 3 -313 c3 -338 3 -338 56 -358 16 -6
54 -5 106 2 141 21 137 22 152 -41 7 -30 12 -56 11 -56 -1 -1 -89 -45 -196
-99 -177 -88 -198 -96 -235 -91 -96 15 -200 90 -237 171 -17 36 -19 74 -19
419 l0 378 -87 -3 -88 -4 -5 52 c-3 29 -3 61 1 70 4 10 50 43 102 73 l96 55
62 163 61 162 84 0 c46 0 84 -1 85 -2z m-4766 -285 c225 -55 389 -257 425
-523 45 -330 -120 -628 -395 -712 -92 -29 -270 -31 -360 -4 -145 43 -288 160
-358 294 -104 197 -104 466 -2 662 41 76 140 179 217 224 136 79 306 100 473
59z m3717 1 c191 -46 357 -216 414 -424 25 -90 25 -309 1 -400 -53 -198 -198
-356 -382 -413 -105 -32 -282 -30 -383 6 -97 34 -157 74 -239 160 -122 129
-168 255 -168 462 0 107 4 143 23 205 72 232 264 395 497 419 84 9 160 4 237
-15z m-2659 -40 l57 -56 0 -459 c0 -429 1 -460 18 -466 9 -3 50 -19 90 -35
l72 -30 0 -48 c0 -87 31 -80 -365 -80 l-353 0 -6 23 c-14 54 -9 63 62 95 37
17 79 36 95 41 l27 11 0 414 0 415 -32 5 c-18 3 -60 9 -93 13 l-60 8 -9 58
c-5 31 -7 59 -5 61 11 11 192 58 269 71 156 24 167 23 233 -41z"/>
<path d="M4983 4192 l-133 -15 0 -293 0 -293 55 -6 c97 -13 225 -2 276 23 59
29 107 76 133 132 17 38 21 64 21 165 0 139 -15 183 -86 260 -48 52 -47 52
-266 27z"/>
<path d="M6423 3754 c-41 -20 -77 -92 -99 -194 -12 -57 -15 -112 -11 -230 4
-133 8 -166 30 -229 27 -76 62 -129 111 -165 21 -16 46 -22 107 -25 78 -3 79
-3 112 30 73 73 108 258 89 462 -17 178 -68 300 -143 346 -40 24 -152 27 -196
5z"/>
<path d="M10150 3752 c-141 -70 -164 -560 -36 -751 44 -65 94 -91 180 -91 66
0 70 1 106 38 55 55 80 143 87 307 11 254 -50 444 -159 501 -38 20 -135 18
-178 -4z"/>
</g>
</svg>
